<!-- Generated by IcoMoon.io -->
<svg version="1.1" xmlns="http://www.w3.org/2000/svg"  viewBox="0 0 32 32">
<title>search</title>
<path d="M13.5 4.467c-4.989 0-9.033 4.044-9.033 9.033s4.044 9.033 9.033 9.033c2.495 0 4.751-1.009 6.388-2.646s2.646-3.893 2.646-6.388c0-4.989-4.044-9.033-9.033-9.033zM0.867 13.5c0-6.977 5.656-12.633 12.633-12.633s12.633 5.656 12.633 12.633c0 2.839-0.938 5.461-2.518 7.57l6.991 6.991c0.703 0.703 0.703 1.843 0 2.546s-1.843 0.703-2.546 0l-6.991-6.991c-2.109 1.58-4.731 2.518-7.57 2.518-6.977 0-12.633-5.656-12.633-12.633z"></path>
</svg>
